Coordinates
version=1
nRows=32
nColumns=12
inDegrees=yes

Units are S.I. units (second, meters, Newtons, ...)
Angles are in degrees

endheader
time	SC_y	SC_z	SC_x	AC_y	AC_z	AC_x	GH_y	GH_z	GH_yy	EL_x	PS_y
       0.0              -24.06          35.71          3.335          56.65          4.966         -14.18          94.16         0.9728          37.93          58.92          159.5
   0.01354              -24.06          35.71          3.345          56.64          4.966         -14.18          94.15         0.9851          37.91          58.92          159.5
   0.02708              -24.06           35.7          3.356          56.64          4.966         -14.18          94.14         0.9982          37.89          58.92          159.4
   0.04062              -24.06           35.7          3.368          56.64          4.967         -14.18          94.12          1.012          37.88          58.92          159.4
   0.05416              -24.06          35.69          3.381          56.63          4.967         -14.18          94.11          1.027          37.86          58.92          159.4
    0.0677              -24.06          35.69          3.394          56.63          4.968         -14.18           94.1          1.043          37.83          58.93          159.4
   0.08123              -24.06          35.68          3.408          56.62          4.968         -14.18          94.08           1.06          37.81          58.93          159.4
   0.09477              -24.05          35.67          3.423          56.62          4.969         -14.18          94.07          1.078          37.79          58.93          159.4
    0.1083              -24.05          35.67           3.44          56.62          4.969         -14.18          94.05          1.097          37.76          58.93          159.3
    0.1219              -24.05          35.66          3.457          56.61           4.97         -14.18          94.03          1.118          37.74          58.93          159.3
    0.1354              -24.05          35.65          3.476           56.6          4.971         -14.18          94.01           1.14          37.71          58.93          159.3
    0.1489              -24.05          35.64          3.496           56.6          4.972         -14.18          93.99          1.164          37.67          58.93          159.3
    0.1625              -24.05          35.63          3.518          56.59          4.972         -14.18          93.97           1.19          37.64          58.93          159.3
     0.176              -24.04          35.62          3.542          56.58          4.973         -14.19          93.94          1.217           37.6          58.94          159.2
    0.1895              -24.04          35.61          3.567          56.58          4.974         -14.19          93.92          1.248          37.56          58.94          159.2
    0.2031              -24.04           35.6          3.595          56.57          4.975         -14.19          93.89           1.28          37.52          58.94          159.2
    0.2166              -24.03          35.59          3.625          56.56          4.976         -14.19          93.86          1.316          37.47          58.94          159.1
    0.2302              -24.03          35.57          3.658          56.55          4.977         -14.19          93.82          1.355          37.42          58.94          159.1
    0.2437              -24.03          35.56          3.693          56.54          4.979         -14.19          93.78          1.397          37.36          58.95          159.1
    0.2572              -24.02          35.54          3.733          56.53           4.98         -14.19          93.74          1.443           37.3          58.95          159.0
    0.2708              -24.02          35.52          3.776          56.51          4.982         -14.19           93.7          1.494          37.23          58.95          159.0
    0.2843              -24.02           35.5          3.823           56.5          4.983         -14.19          93.65           1.55          37.16          58.96          158.9
    0.2979              -24.01          35.48          3.875          56.48          4.985          -14.2          93.59          1.612          37.08          58.96          158.8
    0.3114               -24.0          35.46          3.933          56.47          4.987          -14.2          93.53           1.68          36.99          58.96          158.8
    0.3249               -24.0          35.43          3.998          56.45           4.99          -14.2          93.47          1.756          36.88          58.97          158.7
    0.3385              -23.99           35.4          4.069          56.42          4.992          -14.2          93.39          1.841          36.77          58.98          158.6
     0.352              -23.98          35.36           4.15           56.4          4.995          -14.2          93.31          1.937          36.64          58.98          158.5
    0.3656              -23.97          35.33           4.24          56.37          4.999         -14.21          93.21          2.044           36.5          58.99          158.4
    0.3791              -23.96          35.28          4.343          56.34          5.002         -14.21          93.11          2.165          36.34           59.0          158.3
    0.3926              -23.95          35.23          4.459          56.31          5.007         -14.22          92.99          2.302          36.16           59.0          158.2
    0.4062              -23.94          35.18          4.591          56.27          5.011         -14.22          92.85          2.459          35.95          59.01          158.0
    0.4197              -23.92          35.11          4.743          56.22          5.017         -14.22          92.69          2.639          35.71          59.03          157.8
